<svg width="231" height="210" viewBox="0 0 231 210" fill="none" xmlns="http://www.w3.org/2000/svg">
<path opacity="0.4" d="M111.448 191.617C52.1321 196.396 16.3268 135.02 16.3281 73.2357C16.3284 58.375 18.3769 50.7522 26.5718 43.367C36.8154 34.1354 44.1323 69.9775 55.8394 89.5248C67.5464 109.072 111.448 97.6721 129.496 69.9775C147.544 42.2828 238.274 83.0103 229.006 112.334C219.738 141.658 185.592 185.644 111.448 191.617Z" fill="#1FA37A" stroke="#1FA37A"/>
<path opacity="0.2" d="M62.5449 58.9208L66.3003 27.0006C66.5377 24.9825 67.4832 23.1141 68.9687 21.7276C71.9846 18.9128 76.5763 18.6411 79.9031 21.0808L81.2105 22.0395C85.6877 25.3228 86.851 31.516 83.8702 36.2001L83.5136 36.7605C80.6823 41.2096 81.3211 47.0281 85.05 50.757L91.1938 56.9009C97.313 63.02 94.9785 73.4709 86.9197 76.6243C83.3403 78.0249 79.2528 77.6473 76.017 75.5731L67.9867 70.4255C64.1211 67.9476 62.0084 63.481 62.5449 58.9208Z" fill="#1FA37A" stroke="#1FA37A"/>
<path d="M118.912 207.614C118.912 206.893 129.606 206.309 142.797 206.309C155.989 206.309 166.683 206.893 166.683 207.614C166.683 208.335 155.989 208.92 142.797 208.92C129.606 208.92 118.912 208.334 118.912 207.614Z" fill="#D2DEDB"/>
<path d="M0 196.571C0 195.85 10.6936 195.266 23.8853 195.266C37.0769 195.266 47.7706 195.85 47.7706 196.571C47.7706 197.292 37.0769 197.877 23.8853 197.877C10.6936 197.877 0 197.291 0 196.571Z" fill="#D2DEDB"/>
<path d="M93.2384 53.0609C89.2965 58.6863 86.7288 59.6453 84.8304 67.9505C84.6623 68.6843 87.1407 73.5113 87.6996 74.015C88.8539 75.0555 92.5317 74.6206 93.7582 73.6668C98.7313 69.7987 102.258 65.1127 106.453 59.8848C108.723 57.0555 110.996 54.2237 113.043 51.2288C115.217 48.0505 117.465 44.0015 116.12 40.0349C115.1 37.0306 112.341 34.7688 109.126 35.4908C102.467 36.9874 96.7642 48.0309 93.2384 53.0609Z" fill="#FFB3AB"/>
<path d="M90.9812 105.999L85.1689 107.783L85.4186 97.9714C84.3246 88.1017 83.3071 77.7639 84.8326 67.9519L85.6369 65.707L95.358 66.3449L95.4744 71.3885C95.7037 81.316 92.1695 88.9476 89.7946 98.5897L90.9812 105.999Z" fill="#FFB3AB"/>
<path d="M82.0785 113.414L74.9277 121.751C74.5692 122.164 74.7952 122.812 75.3328 122.913C75.5613 122.956 75.7957 122.885 75.9613 122.722L79.8795 119.855L84.5995 114.118L82.0785 113.414Z" fill="#FFB3AB"/>
<path d="M81.3691 111.977L73.1387 119.235L73.3128 119.591C73.5905 120.158 74.3125 120.336 74.8221 119.965L79.9022 116.27L81.3691 111.977Z" fill="#FFB3AB"/>
<path d="M83.6527 113.709L80.967 123.408C80.7742 124.105 81.356 124.771 82.0721 124.674C82.3863 124.631 82.6615 124.444 82.8161 124.167L84.6338 120.907C84.9047 120.422 85.1103 119.903 85.2453 119.364L86.6689 113.301L83.6527 113.709Z" fill="#FFB3AB"/>
<path d="M81.5341 109.395L74.6074 114.941C74.683 115.496 75.1935 115.885 75.749 115.81C76.7547 115.674 81.3719 111.976 81.3719 111.976L81.5341 109.395Z" fill="#FFB3AB"/>
<path d="M86.389 103.324L81.5297 109.393L79.9278 112.682L80.8367 113.531L79.9023 116.269L80.4731 116.704L83.2803 115.459L85.5006 116.022C85.5006 116.022 86.6676 113.304 87.6733 113.168C88.6789 113.032 90.1186 112.325 90.1186 112.325L88.4573 103.847L87.8865 103.413L86.389 103.324Z" fill="#FFB3AB"/>
<path d="M90.6056 104.58C90.6056 104.58 91.7217 109.036 91.9943 111.046L92.3986 114.025C92.4768 114.601 92.0733 115.131 91.4975 115.209C90.9674 115.281 90.4689 114.948 90.338 114.429C90.1223 113.572 89.6849 112.164 88.8423 110.45C87.4281 107.57 87.3652 104 87.3652 104L90.6056 104.58Z" fill="#FFB3AB"/>
<path d="M109.127 35.4922L109.282 36.1105L111.823 46.2759C111.823 46.2759 111.08 46.5944 110.336 48.5055C109.593 50.4166 109.127 35.4922 109.127 35.4922Z" fill="#FF8E82"/>
<path d="M112.461 53.494C112.461 53.494 105.666 61.5631 100.57 66.8716C95.4738 72.1802 95.4738 72.1802 95.4738 72.1802C95.4738 72.1802 95.6862 78.7629 94.8368 81.5234C93.9874 84.2838 91.0146 94.6887 91.0146 94.6887L89.1035 95.3257C89.1035 95.3257 91.4393 74.0913 91.6516 72.3926C91.864 70.6938 110.338 48.5039 110.338 48.5039L112.461 53.494Z" fill="#FF9A8F"/>
<path d="M145.51 151.437L140.64 145.845C140.066 145.828 135.89 139.058 135.518 138.622L128.414 127.49C124.149 122.477 120.179 115.888 117.085 110.078L106.466 90.7855C105.987 89.8861 106.251 88.7708 107.082 88.1814L122.84 77.0061C123.721 76.3818 124.935 76.5577 125.603 77.4053C139.26 94.7572 148.855 114.949 153.683 136.496L159.563 151.628C159.851 152.917 147.393 152.815 145.51 151.437Z" fill="#FFB3AB"/>
<path d="M141.284 143.28C141.344 143.936 164.001 190.418 164.001 190.418L167.887 192.912L170.064 192.009C170.064 192.009 170.679 163.178 167.295 157.914C164.405 153.417 155.922 143.969 155.922 143.969C155.922 143.969 140.407 133.783 141.284 143.28Z" fill="url(#paint0_linear_1413_2735)"/>
<path d="M125.145 123.282L149.025 120.168L147.611 116.289L125.145 123.282Z" fill="#FF8E82"/>
<path d="M125.145 123.281C125.145 123.281 137.084 139.786 144.611 142.209C151.527 144.435 152.671 144.725 152.671 144.725C152.671 144.725 149.701 147.823 150.123 150.122C150.545 152.42 167.111 191.563 167.111 191.563L162.972 188.298L145.511 151.436L140.641 145.844L125.145 123.281Z" fill="#FF9A8F"/>
<path d="M161.412 189.564C162.279 187.618 165.069 187.941 166.14 189.749C166.49 190.339 166.667 191.066 167.112 191.566C168.076 192.649 170.046 191.731 170.073 190.186C171.258 194.658 172.377 199.797 170.2 203.753C167.691 208.31 162.194 208.917 157.484 209.04C156.198 209.074 154.679 208.975 153.978 207.742C153.225 206.418 153.906 204.678 154.588 203.305C156.863 198.724 159.138 194.145 161.412 189.564Z" fill="#009382"/>
<path d="M153.752 205.515C155.942 208.836 162.749 207.77 165.837 205.261C168.925 202.753 169.517 199.386 171.332 196.402" stroke="white" stroke-width="0.7592" stroke-miterlimit="10"/>
<path d="M161.825 195.633C161.252 195.816 160.689 196.029 160.138 196.27C159.501 196.548 158.825 196.925 158.594 197.58C158.471 197.924 158.526 198.373 158.838 198.565C159.01 198.67 159.224 198.679 159.425 198.658C160.754 198.524 161.707 197.373 162.608 196.386C162.843 196.128 163.131 195.855 163.48 195.869C163.714 195.877 163.922 196.017 164.103 196.167C164.999 196.916 165.519 198.093 165.471 199.259C165.465 199.4 165.45 199.547 165.375 199.667C165.25 199.869 164.99 199.946 164.752 199.948C164.135 199.951 163.567 199.551 163.232 199.033C162.896 198.515 162.761 197.893 162.689 197.281C162.646 196.912 162.62 196.53 162.449 196.201C162.278 195.871 161.911 195.609 161.549 195.691C161.361 196.054 161.734 196.441 161.869 196.829C162.032 197.301 161.822 197.814 161.607 198.265C161.033 199.468 160.391 200.637 159.685 201.768C159.492 202.077 159.217 202.422 158.855 202.384" stroke="white" stroke-width="0.759" stroke-miterlimit="10" stroke-linecap="round"/>
<path d="M50.5909 168.488C50.5475 168.487 60.1506 169.579 57.5048 176.209C57.0988 177.226 51.949 179.877 51.0614 182.941C50.1738 186.006 49.2582 189.845 47.6265 192.108C45.994 194.37 42.8437 195.803 39.7222 196.463C36.5999 197.122 33.5694 196.772 32.7905 195.434C32.6249 195.149 31.0985 192.63 36.2254 186.267C41.3072 179.962 43.8995 169.719 43.8995 169.719L50.5909 168.488Z" fill="#009382"/>
<path d="M56.0801 169.801C61.0795 174.415 50.8861 177.638 49.968 180.771C49.5034 182.358 49.1398 184.895 48.8188 186.517C48.2182 189.549 45.9114 192.429 43.3853 193.701C40.6257 195.092 35.9023 196.379 32.2695 194.769" stroke="white" stroke-width="0.7592" stroke-miterlimit="10"/>
<path d="M45.2928 180.86C44.9497 182.703 44.3059 184.488 43.3945 186.125C43.2314 186.417 42.9613 186.749 42.6377 186.663C42.4891 186.623 42.3786 186.501 42.292 186.374C41.5446 185.275 42.0805 183.796 42.6326 182.588C43.2603 181.214 44.0681 179.686 45.5332 179.32C42.845 179.482 40.2255 180.614 38.2651 182.461C38.0298 182.684 37.792 183.048 37.9993 183.297C38.1708 183.504 38.5004 183.433 38.751 183.336C40.6824 182.593 42.4491 181.425 43.8897 179.939C41.8087 181.41 40.2212 183.567 39.4364 185.991" stroke="white" stroke-width="0.7593" stroke-miterlimit="10" stroke-linecap="round" stroke-linejoin="round"/>
<path d="M59.6846 130.205C58.8114 132.683 47.891 161.898 44.3984 171.237C43.8038 172.828 44.5844 174.597 46.1574 175.235C46.5362 175.388 48.5832 175.673 48.8873 175.399C51.6962 172.869 64.0113 159.869 66.8788 155.55C70.0121 150.83 74.6633 142.194 74.6633 142.194C81.6333 136.42 64.3969 116.836 59.6846 130.205Z" fill="url(#paint1_linear_1413_2735)"/>
<path d="M74.6638 142.193L60.7773 127.86L104.322 80.4961L129.957 94.7376L74.6638 142.193Z" fill="#FFB3AB"/>
<path d="M82.7324 103.316L98.3949 121.721L102.975 117.791L82.7324 103.316Z" fill="#FF8E82"/>
<path d="M95.3657 124.425L74.6621 142.194C74.6621 142.194 71.8337 149.453 66.8776 155.55C61.9224 161.647 52.7805 171.526 52.7805 171.526L48.8861 175.4L46.1562 175.235L63.4512 137.92C64.1426 136.428 65.0684 135.054 66.1922 133.852L66.8785 133.119C72.4877 132.2 75.2609 132.023 79.18 127.906L92.3988 114.02L98.392 121.723L95.3657 124.425Z" fill="#FF9A8F"/>
<path d="M105.356 79.5352L80.7402 101.897L105.356 119.536L117.083 110.069L123.507 123.783L151.017 115.22L142.209 83.4932L105.356 79.5352Z" fill="#009382"/>
<path d="M103.867 81.1016C103.867 81.1016 114.538 87.3657 120.059 88.5336C125.58 89.7015 130.222 90.6757 136.356 90.1262C143.47 89.4891 144.284 90.9611 144.284 90.9611C144.284 90.9611 134.445 93.5237 124.89 91.8249C115.334 90.1262 99.9395 84.2867 99.9395 84.2867L103.867 81.1016Z" fill="#EBEBEB"/>
<path d="M164.67 45.709C170.906 48.591 173.326 49.1456 178.448 56.6897C178.871 57.3123 180.22 60.3251 179.99 61.0411C179.515 62.5207 172.043 62.8273 170.506 62.6014C164.964 61.7894 162.93 60.6606 156.675 58.2492C153.291 56.9446 149.902 55.6374 146.628 54.0779C143.152 52.4225 139.173 50.0519 138.343 45.946C137.715 42.8364 138.964 39.4942 142.106 38.5029C148.614 36.4508 159.095 43.132 164.67 45.709Z" fill="#FFB3AB"/>
<path d="M191.58 82.2888L196.835 81.3069L192.74 73.4247C187.283 65.1289 181.392 57.504 173.955 50.9239L172.692 50.461C170.906 48.8803 168.208 48.9253 166.475 50.5646L162.459 54.3639L165.589 58.3211C171.749 66.1099 178.912 73.0485 186.895 78.9559L191.58 82.2888Z" fill="#FFB3AB"/>
<path d="M152.513 101.888L195.988 88.6474C196.835 88.3892 197.354 87.539 197.196 86.6683C197.006 85.6245 195.938 84.99 194.931 85.3238L152.361 99.4217L152.513 101.888Z" fill="#00B6A1"/>
<path d="M149.17 93.5217C149.19 93.6441 149.217 93.763 149.24 93.8836C149.097 93.8845 148.955 93.8836 148.811 93.8861C148.311 93.9524 147.811 94.0212 147.31 94.0908C146.991 93.6322 146.665 93.1752 146.294 92.7344C146.377 93.0996 146.469 93.4606 146.573 93.8182L146.658 94.1809C145.839 94.3006 145.023 94.4331 144.207 94.5724C144.054 94.2828 143.901 93.9923 143.732 93.7061C143.75 94.0203 143.781 94.3312 143.813 94.6421C143.4 94.7143 142.986 94.7839 142.574 94.8612C142.073 94.9555 141.573 95.0566 141.073 95.1577C141.019 94.8468 140.967 94.5342 140.926 94.2182C140.816 94.558 140.746 94.8969 140.682 95.2349C139.938 95.3887 139.195 95.5484 138.457 95.7174C138.178 95.782 137.901 95.8516 137.622 95.9178L137.618 95.8992C137.55 95.5101 137.469 95.122 137.379 94.7338C137.273 95.1695 137.197 95.6027 137.132 96.0359C136.895 96.0937 136.657 96.148 136.42 96.2066C135.779 96.4572 135.136 96.6933 134.52 96.9685C135.234 96.8827 135.927 96.7698 136.628 96.6814C136.771 96.6458 136.916 96.6126 137.061 96.5778C137.035 96.78 137.006 96.9821 136.981 97.1851C137.002 97.4416 137.043 97.6939 137.069 97.9496C136.26 98.1746 135.452 98.4023 134.647 98.6274C134.294 98.7259 133.941 98.8201 133.589 98.9178C133.493 98.6707 133.399 98.4235 133.294 98.1772C133.253 98.46 133.232 98.7412 133.211 99.0215C132.71 99.1599 132.208 99.3018 131.704 99.4351L130.277 99.9303L129.557 100.172C129.447 100.214 129.292 100.248 129.184 100.339C129.134 100.376 129.118 100.466 129.237 100.462C129.3 100.464 129.434 100.403 129.349 100.384C129.405 100.412 129.281 100.433 129.253 100.425C129.219 100.421 129.25 100.392 129.281 100.375C129.358 100.338 129.478 100.328 129.612 100.307L130.386 100.178L131.933 99.904C132.003 99.8853 132.072 99.8649 132.142 99.8462C131.943 100.283 131.78 100.722 131.659 101.162C130.897 101.465 130.138 101.767 129.391 102.083C129.386 101.982 129.371 101.883 129.366 101.783C129.196 101.227 129.1 100.659 128.965 100.088C128.728 100.693 128.587 101.295 128.448 101.901C128.469 102.486 128.51 103.068 128.59 103.644C128.6 103.722 128.619 103.797 128.63 103.876C128.049 104.074 127.47 104.274 126.897 104.486C127.495 104.384 128.088 104.274 128.68 104.161C128.775 104.766 128.893 105.365 129.033 105.961C127.989 106.384 126.941 106.797 125.924 107.245C127.008 106.984 128.074 106.705 129.148 106.442C129.199 106.644 129.241 106.848 129.295 107.05C129.337 107.209 129.385 107.366 129.429 107.524L126.827 108.361C127.735 108.229 128.636 108.07 129.538 107.909C129.666 108.36 129.794 108.81 129.929 109.257C128.856 109.617 127.775 109.964 126.708 110.342C127.836 110.155 128.948 109.933 130.067 109.72C130.134 109.944 130.201 110.166 130.268 110.39L130.434 110.947C129.544 111.271 128.651 111.589 127.773 111.929C128.709 111.751 129.631 111.551 130.556 111.357L130.607 111.527C130.055 111.664 129.503 111.8 128.951 111.939L129.114 112.424C129.672 112.316 130.227 112.199 130.783 112.086C130.976 112.405 131.163 112.725 131.356 113.045C131.061 113.144 130.765 113.241 130.471 113.345C130.801 113.302 131.127 113.249 131.454 113.199C131.542 113.34 131.625 113.482 131.721 113.621C131.727 113.466 131.719 113.314 131.717 113.16C132.318 113.065 132.918 112.967 133.519 112.87L134.069 112.73C134.155 112.885 134.25 113.036 134.352 113.185C134.266 113.218 134.178 113.248 134.092 113.282C134.197 113.276 134.3 113.265 134.405 113.257C134.56 113.475 134.731 113.688 134.941 113.886C134.884 113.666 134.85 113.445 134.814 113.223C135.224 113.186 135.634 113.144 136.046 113.108L137.029 112.889C137.197 113.165 137.367 113.44 137.557 113.711C137.541 113.401 137.507 113.096 137.471 112.791L137.929 112.689L139.681 112.298L139.691 112.339C139.768 112.726 139.858 113.113 139.961 113.499C140.063 113.059 140.131 112.622 140.187 112.185L141.693 111.85L143.376 111.474C143.415 112.002 143.441 112.532 143.47 113.068C143.708 112.487 143.88 111.908 144.033 111.328L145.458 111.01L145.899 110.913C145.895 111.232 145.894 111.551 145.907 111.873C146.068 111.521 146.199 111.17 146.325 110.818L147.341 110.593C147.933 110.384 148.524 110.175 149.103 109.94C149.111 110.019 149.112 110.098 149.121 110.177C149.361 109.581 149.537 108.986 149.708 108.39L150.963 108.007C151.867 107.634 152.779 107.277 153.663 106.883C152.654 107.096 151.668 107.337 150.669 107.557L149.864 107.802C149.881 107.549 149.883 107.297 149.896 107.044C150.7 106.753 151.493 106.452 152.283 106.146C152.35 106.376 152.418 106.606 152.498 106.837C152.589 106.549 152.659 106.264 152.721 105.98C152.89 105.913 153.063 105.852 153.231 105.785C153.077 105.833 152.905 105.873 152.736 105.914C152.798 105.624 152.852 105.334 152.911 105.044C152.908 104.999 152.903 104.956 152.899 104.913C153.354 104.746 153.808 104.58 154.258 104.404C153.795 104.491 153.337 104.586 152.878 104.681C152.841 104.226 152.806 103.773 152.752 103.321C152.75 103.309 152.748 103.298 152.747 103.286C153.422 103.034 154.094 102.78 154.758 102.512C154.066 102.659 153.382 102.816 152.699 102.973C152.624 102.419 152.534 101.867 152.426 101.319C152.925 101.178 153.429 101.042 153.943 100.911C153.422 100.948 152.899 101.007 152.373 101.079C152.314 100.789 152.253 100.499 152.184 100.21C152.632 100.081 153.081 99.9532 153.529 99.8173C153.065 99.8717 152.602 99.9371 152.139 100.002C152.133 99.9779 152.129 99.9524 152.123 99.9278C151.972 99.3264 151.798 98.7293 151.607 98.1356C152.271 97.9096 152.936 97.6828 153.594 97.4425C152.892 97.5622 152.196 97.6947 151.499 97.8289C151.396 97.5198 151.29 97.2114 151.176 96.9048C152.034 96.6806 152.895 96.4657 153.758 96.2287C152.846 96.2924 151.935 96.3918 151.022 96.4903C150.918 96.2287 150.805 95.9705 150.695 95.7106C151.396 95.6129 152.101 95.528 152.818 95.4558C152.086 95.3666 151.317 95.3343 150.533 95.3258C150.485 95.2163 150.444 95.105 150.394 94.9954C150.177 94.7236 149.963 94.4518 149.743 94.1826C150.122 94.0934 150.499 94.0085 150.882 93.9091C150.419 93.8862 149.952 93.8827 149.483 93.8844C149.378 93.7621 149.282 93.6398 149.17 93.5217ZM133.329 101.199C133.397 101.539 133.459 101.88 133.533 102.219C133.55 102.298 133.572 102.376 133.589 102.455L133.454 102.491L132.585 102.72C132.535 102.295 132.508 101.868 132.512 101.438C132.783 101.357 133.057 101.279 133.329 101.199ZM134.721 112.036C134.661 111.787 134.617 111.533 134.576 111.278C135.083 111.164 135.591 111.048 136.098 110.929L136.336 111.627C136.304 111.636 136.273 111.644 136.241 111.653L134.721 112.036ZM137.233 111.386L137.001 110.714C137.756 110.534 138.509 110.35 139.26 110.162C139.288 110.381 139.321 110.599 139.345 110.819C138.641 111.009 137.939 111.202 137.233 111.386ZM145.893 108.982C145.348 109.142 144.803 109.298 144.258 109.455C144.258 109.249 144.247 109.044 144.24 108.839C144.81 108.679 145.376 108.512 145.944 108.348L145.942 108.397L145.893 108.982ZM148.758 101.854C148.151 102.031 147.549 102.213 146.953 102.4C146.8 102.449 146.65 102.497 146.498 102.546C146.497 102.54 146.497 102.534 146.496 102.528C146.448 102.243 146.382 101.962 146.328 101.678C146.414 101.658 146.499 101.636 146.584 101.615C147.275 101.453 147.968 101.298 148.66 101.14C148.668 101.189 148.682 101.237 148.69 101.288C148.72 101.475 148.731 101.666 148.758 101.854ZM147.494 97.6591C147.597 97.6378 147.699 97.6191 147.801 97.5988C147.907 97.9394 148.008 98.2816 148.101 98.6256L146.81 98.9662L145.791 99.2355C145.696 98.8524 145.606 98.4685 145.504 98.088C146.167 97.9428 146.829 97.7958 147.494 97.6591ZM144.599 98.2825C144.705 98.6775 144.798 99.075 144.896 99.4716L142.234 100.175C142.104 99.757 141.967 99.3417 141.857 98.9212C142.768 98.7013 143.682 98.4872 144.599 98.2825ZM136.645 109.676L139.108 108.976C139.129 109.112 139.14 109.25 139.161 109.386C138.359 109.59 137.556 109.793 136.752 109.995L136.679 109.783C136.667 109.747 136.657 109.712 136.645 109.676ZM145.965 107.598C145.379 107.758 144.794 107.92 144.206 108.078C144.194 107.899 144.169 107.721 144.151 107.542L145.966 107.027C145.967 107.098 145.975 107.17 145.975 107.241L145.965 107.598ZM145.6 102.833C144.836 103.077 144.069 103.321 143.307 103.563C143.295 103.526 143.286 103.487 143.274 103.449C143.176 103.133 143.069 102.82 142.967 102.506C143.784 102.298 144.605 102.1 145.425 101.9C145.475 102.162 145.537 102.422 145.58 102.685C145.589 102.733 145.593 102.783 145.6 102.833ZM138.971 103.56C139.197 103.499 139.42 103.433 139.647 103.372C140.455 103.155 141.267 102.946 142.079 102.737C142.177 103.038 142.276 103.34 142.369 103.642C142.39 103.707 142.406 103.771 142.425 103.836C141.721 104.057 141.019 104.28 140.307 104.491C139.952 104.598 139.593 104.7 139.237 104.805C139.182 104.55 139.128 104.294 139.073 104.04C139.037 103.88 139.006 103.719 138.971 103.56ZM138.453 105.572C138.546 106.006 138.636 106.441 138.723 106.876C137.813 107.126 136.903 107.375 135.992 107.622C135.862 107.208 135.722 106.796 135.597 106.38C136.552 106.116 137.503 105.847 138.453 105.572ZM139.345 105.311C139.759 105.189 140.176 105.072 140.588 104.948C141.252 104.75 141.909 104.54 142.569 104.334C142.698 104.789 142.816 105.245 142.917 105.703C142.172 105.914 141.432 106.132 140.686 106.34C140.332 106.438 139.975 106.532 139.62 106.631C139.531 106.19 139.439 105.75 139.345 105.311ZM140.067 109.157C140.046 109.012 140.033 108.865 140.009 108.72L141.145 108.397L143.247 107.8C143.262 107.962 143.286 108.123 143.296 108.286C143.297 108.298 143.296 108.308 143.297 108.319C142.568 108.512 141.839 108.706 141.107 108.895C140.762 108.984 140.413 109.069 140.067 109.157ZM139.916 108.212C139.853 107.852 139.785 107.495 139.715 107.137C140.121 107.024 140.531 106.917 140.937 106.803C141.633 106.609 142.325 106.406 143.02 106.209C143.089 106.564 143.147 106.921 143.194 107.279L140.887 107.935L139.916 108.212ZM145.668 103.357C145.741 103.858 145.815 104.359 145.862 104.863C145.178 105.061 144.493 105.254 143.808 105.45C143.704 104.983 143.584 104.521 143.452 104.062C144.193 103.826 144.931 103.593 145.668 103.357ZM145.893 105.389C145.92 105.758 145.932 106.127 145.942 106.498L144.098 107.022C144.049 106.663 143.987 106.307 143.916 105.952C144.576 105.766 145.235 105.579 145.893 105.389ZM136.488 109.185C136.369 108.828 136.262 108.469 136.147 108.111C137.038 107.87 137.928 107.626 138.817 107.382C138.886 107.743 138.957 108.104 139.019 108.466L136.488 109.185ZM135.602 109.437L134.328 109.799C134.255 109.423 134.173 109.048 134.079 108.677C134.472 108.572 134.864 108.461 135.257 108.355C135.374 108.715 135.482 109.078 135.602 109.437ZM133.95 108.18C133.835 107.762 133.714 107.344 133.59 106.929C133.661 106.91 133.732 106.893 133.803 106.874C134.105 106.793 134.405 106.707 134.707 106.625C134.832 107.04 134.971 107.452 135.102 107.865C134.717 107.97 134.334 108.078 133.95 108.18ZM133.446 106.437C133.327 106.037 133.211 105.638 133.102 105.238C133.471 105.128 133.842 105.021 134.211 104.912C134.322 105.316 134.43 105.721 134.548 106.125C134.549 106.128 134.551 106.132 134.552 106.135C134.224 106.224 133.899 106.318 133.571 106.406C133.529 106.417 133.488 106.427 133.446 106.437ZM135.098 104.652C136.087 104.364 137.08 104.084 138.076 103.808C138.105 103.942 138.132 104.076 138.161 104.21C138.223 104.496 138.282 104.781 138.344 105.066C137.38 105.347 136.413 105.621 135.442 105.89C135.321 105.478 135.211 105.065 135.098 104.652ZM134.959 104.155C134.834 103.678 134.719 103.198 134.605 102.718L137.674 101.908C137.768 102.374 137.869 102.839 137.969 103.304C136.963 103.582 135.959 103.865 134.959 104.155ZM138.574 101.671L140.36 101.199L141.48 100.904C141.625 101.354 141.771 101.802 141.919 102.25C141.082 102.466 140.244 102.681 139.411 102.905C139.228 102.954 139.048 103.007 138.865 103.056C138.766 102.594 138.665 102.133 138.574 101.671ZM142.38 100.666L145.02 99.9694C145.133 100.444 145.231 100.922 145.328 101.398C144.487 101.602 143.646 101.805 142.809 102.017C142.659 101.567 142.524 101.115 142.38 100.666ZM148.245 99.1174C148.369 99.6203 148.461 100.13 148.556 100.639C147.835 100.803 147.114 100.966 146.395 101.136C146.339 101.149 146.284 101.164 146.228 101.176C146.13 100.694 146.029 100.211 145.915 99.7324L147.03 99.4385L148.245 99.1174ZM148.82 102.372C148.884 102.901 148.94 103.431 148.972 103.965L147.671 104.348C147.37 104.435 147.066 104.519 146.763 104.607C146.713 104.092 146.641 103.581 146.565 103.07C146.794 102.997 147.024 102.923 147.252 102.85C147.774 102.687 148.296 102.527 148.82 102.372ZM148.992 104.497C149.007 104.87 149.034 105.242 149.034 105.619L147.512 106.053L146.852 106.24C146.84 105.87 146.832 105.499 146.803 105.131C147.18 105.021 147.561 104.917 147.938 104.807L148.992 104.497ZM149.018 106.16C149.013 106.382 148.998 106.606 148.989 106.829L147.129 107.279C147.049 107.302 146.968 107.323 146.887 107.345L146.893 107.13C146.893 107.008 146.879 106.888 146.877 106.767L147.762 106.515L149.018 106.16ZM143.335 109.722C142.908 109.843 142.485 109.972 142.056 110.091C141.458 110.258 140.853 110.412 140.254 110.576C140.229 110.36 140.196 110.145 140.169 109.93C140.594 109.82 141.022 109.716 141.447 109.603C142.076 109.437 142.702 109.262 143.328 109.088C143.333 109.299 143.337 109.51 143.335 109.722ZM134.463 110.57C134.45 110.482 134.437 110.395 134.424 110.308L134.528 110.278L135.758 109.928C135.764 109.946 135.769 109.965 135.775 109.983L135.856 110.22C135.392 110.336 134.928 110.454 134.463 110.57ZM131.313 110.657L131.174 110.199C131.104 109.967 131.035 109.736 130.966 109.505L133.178 108.919C133.273 109.297 133.353 109.677 133.424 110.058L131.313 110.657ZM130.818 109.009C130.691 108.588 130.572 108.165 130.451 107.743C131.201 107.554 131.948 107.357 132.694 107.161C132.819 107.58 132.941 107.999 133.055 108.419L130.818 109.009ZM130.312 107.25C130.277 107.123 130.237 106.995 130.204 106.868C130.143 106.64 130.095 106.412 130.039 106.183C130.764 105.956 131.49 105.73 132.218 105.507C132.326 105.896 132.438 106.283 132.552 106.669C131.806 106.865 131.061 107.062 130.312 107.25ZM132.969 104.739C132.841 104.24 132.732 103.739 132.653 103.234L133.69 102.959L133.71 102.954C133.826 103.442 133.944 103.93 134.073 104.415C133.705 104.524 133.335 104.63 132.969 104.739ZM134.221 100.938C134.515 100.853 134.807 100.764 135.102 100.68C135.847 100.47 136.596 100.269 137.346 100.068C137.419 100.514 137.498 100.958 137.584 101.401L134.486 102.219C134.473 102.162 134.457 102.106 134.444 102.048C134.362 101.679 134.294 101.308 134.221 100.938ZM138.245 99.8241C139.145 99.588 140.05 99.3595 140.957 99.137C141.07 99.5659 141.195 99.9906 141.326 100.414L140.132 100.729L138.484 101.164C138.399 100.718 138.318 100.272 138.245 99.8241ZM138.16 99.3179C138.106 98.9527 138.075 98.584 138.033 98.2171C138.89 97.981 139.748 97.75 140.61 97.5291C140.674 97.902 140.75 98.2723 140.838 98.6393C139.942 98.8584 139.049 99.0852 138.16 99.3179ZM141.512 97.3032C142.387 97.0874 143.266 96.8861 144.15 96.7018L144.461 97.7916C143.55 97.9946 142.644 98.2078 141.738 98.4243C141.65 98.0523 141.575 97.6786 141.512 97.3032ZM145.058 96.5184C145.623 96.4096 146.189 96.3069 146.756 96.2168C146.937 96.1879 147.118 96.1659 147.299 96.1395C147.406 96.4249 147.527 96.7061 147.625 96.9931C147.638 97.0305 147.647 97.0696 147.659 97.1078C147.557 97.1282 147.456 97.1469 147.355 97.1673C146.69 97.304 146.029 97.4518 145.365 97.5962L145.058 96.5184ZM148.228 96.007C148.74 95.9425 149.25 95.8873 149.759 95.8448C149.761 95.8448 149.762 95.8439 149.764 95.8439C149.875 96.1047 149.988 96.3646 150.093 96.6271C149.584 96.7256 149.076 96.8275 148.568 96.9278C148.554 96.8827 148.544 96.8369 148.529 96.7927C148.437 96.5294 148.326 96.2695 148.228 96.007ZM150.587 98.0014C150.441 98.0294 150.295 98.0574 150.149 98.0846L148.994 98.3895C148.906 98.0651 148.811 97.7423 148.711 97.4204C149.232 97.3168 149.753 97.2123 150.276 97.1138C150.386 97.4076 150.488 97.7041 150.587 98.0014ZM151.219 100.131C150.786 100.195 150.353 100.26 149.919 100.325C149.766 100.36 149.613 100.396 149.46 100.431C149.361 99.9125 149.266 99.3943 149.137 98.8822L150.365 98.5577C150.489 98.5144 150.613 98.4728 150.737 98.4303C150.913 98.9841 151.072 99.5421 151.213 100.104C151.216 100.113 151.217 100.122 151.219 100.131ZM151.455 101.216C151.09 101.277 150.725 101.34 150.36 101.409C150.125 101.47 149.894 101.539 149.66 101.604C149.638 101.447 149.629 101.288 149.604 101.133C149.593 101.066 149.574 101.001 149.563 100.934C149.737 100.895 149.909 100.854 150.083 100.815C150.484 100.696 150.888 100.582 151.291 100.466C151.351 100.715 151.403 100.966 151.455 101.216ZM151.792 103.177C151.578 103.226 151.363 103.276 151.149 103.324L149.885 103.696C149.85 103.168 149.789 102.645 149.723 102.121C150.01 102.042 150.295 101.957 150.583 101.884C150.895 101.777 151.217 101.684 151.536 101.587C151.638 102.114 151.721 102.645 151.792 103.177ZM151.961 104.869C151.582 104.949 151.204 105.03 150.824 105.108L149.948 105.358C149.945 104.98 149.922 104.604 149.904 104.227L151.425 103.78C151.566 103.726 151.708 103.673 151.85 103.62C151.896 104.035 151.933 104.452 151.961 104.869ZM152.249 106.033C152.076 106.073 151.906 106.11 151.72 106.156L150.181 106.54L149.914 106.605C149.924 106.369 149.939 106.132 149.943 105.897L151.071 105.577C151.382 105.462 151.695 105.35 152.007 105.237C152.093 105.501 152.171 105.766 152.249 106.033ZM148.951 108.08L147.814 108.427C147.487 108.524 147.155 108.615 146.828 108.712L146.86 108.301L146.866 108.078C147.071 108.018 147.278 107.96 147.483 107.899C147.98 107.727 148.471 107.548 148.965 107.373C148.953 107.565 148.956 107.756 148.939 107.948L148.951 108.08ZM146.519 110.249C146.603 109.992 146.689 109.735 146.768 109.477L146.784 109.26C147.22 109.132 147.66 109.011 148.094 108.881L149 108.605L149.041 109.058C149.052 109.349 149.079 109.64 149.106 109.931C148.449 109.971 147.804 110.038 147.159 110.106L146.519 110.249ZM144.18 110.773C144.196 110.709 144.215 110.644 144.23 110.581C144.24 110.385 144.239 110.19 144.244 109.995C144.779 109.842 145.313 109.687 145.845 109.532L145.843 109.556L145.882 110.391L145.28 110.526L144.18 110.773ZM140.249 111.65C140.269 111.464 140.293 111.278 140.311 111.091C140.976 110.911 141.644 110.74 142.306 110.556C142.645 110.462 142.979 110.359 143.318 110.263C143.312 110.401 143.315 110.537 143.306 110.675C143.319 110.77 143.322 110.866 143.332 110.962L141.529 111.364L140.249 111.65ZM137.412 112.283C137.395 112.149 137.379 112.016 137.363 111.883C138.054 111.702 138.74 111.513 139.429 111.328L139.554 111.805L137.777 112.201L137.412 112.283ZM134.75 112.559L136.462 112.124C136.492 112.116 136.521 112.108 136.551 112.1C136.617 112.21 136.684 112.32 136.75 112.43L135.9 112.619C135.527 112.757 135.152 112.89 134.779 113.026C134.759 112.872 134.758 112.715 134.75 112.559ZM131.68 111.906C132.344 111.767 133.007 111.623 133.669 111.478C133.711 111.731 133.753 111.984 133.808 112.237C133.812 112.246 133.817 112.255 133.821 112.264L133.315 112.392C132.784 112.572 132.251 112.747 131.717 112.925C131.707 112.583 131.691 112.245 131.68 111.906ZM131.509 111.304L131.463 111.15L133.524 110.564C133.536 110.64 133.548 110.717 133.56 110.794C132.876 110.964 132.193 111.134 131.509 111.304ZM129.591 103.988C129.845 103.939 130.1 103.889 130.356 103.841L131.753 103.471C131.838 103.989 131.949 104.501 132.08 105.007C131.356 105.228 130.636 105.452 129.916 105.679C129.788 105.118 129.68 104.554 129.591 103.988ZM129.399 102.174C130.135 102.009 130.866 101.84 131.598 101.675C131.598 102.107 131.627 102.535 131.681 102.957L130.114 103.37C129.916 103.439 129.718 103.505 129.519 103.573C129.516 103.548 129.509 103.523 129.506 103.498C129.445 103.06 129.422 102.618 129.399 102.174ZM133.174 99.5651C133.162 99.791 133.15 100.017 133.138 100.244C133.165 100.394 133.199 100.543 133.228 100.692C132.97 100.768 132.712 100.842 132.456 100.918C132.396 100.549 132.36 100.174 132.342 99.7935C132.619 99.7188 132.896 99.6415 133.174 99.5651ZM137.129 98.4677C137.171 98.8286 137.201 99.1922 137.254 99.5523C137.254 99.5549 137.255 99.5583 137.256 99.5608C136.451 99.7766 135.647 99.9923 134.847 100.218C134.604 100.287 134.363 100.361 134.12 100.431C134.098 100.315 134.072 100.2 134.051 100.084C133.955 99.8572 133.867 99.6279 133.779 99.3994C134.152 99.2967 134.527 99.1964 134.898 99.092C135.644 98.883 136.386 98.6749 137.129 98.4677ZM140.592 95.7734C140.549 96.0809 140.508 96.3884 140.482 96.6959C140.493 96.8046 140.517 96.9108 140.531 97.0186C139.672 97.2378 138.822 97.4688 137.973 97.7015C137.951 97.485 137.916 97.2709 137.898 97.0535L137.744 96.4139C138.041 96.3434 138.337 96.2686 138.634 96.2007C139.284 96.0521 139.937 95.9102 140.592 95.7734ZM143.863 95.15C143.893 95.4354 143.925 95.7208 143.951 96.0079L144.009 96.2109C143.144 96.391 142.286 96.5871 141.435 96.7952C141.425 96.7146 141.406 96.6347 141.399 96.554C141.306 96.2584 141.241 95.9578 141.176 95.6562C141.678 95.5543 142.18 95.4524 142.685 95.3581C143.076 95.2851 143.469 95.2188 143.863 95.15ZM146.774 94.6778L146.827 94.9028C146.931 95.1509 147.016 95.4031 147.113 95.6528C146.973 95.6741 146.833 95.6902 146.694 95.7123C146.099 95.8074 145.507 95.9145 144.918 96.0283L144.857 95.8176C144.721 95.5611 144.59 95.3029 144.457 95.0455C145.227 94.9156 145.998 94.7916 146.769 94.6795C146.771 94.6786 146.773 94.6786 146.774 94.6778ZM149.318 94.2828C149.384 94.5954 149.451 94.9071 149.502 95.2214C149.521 95.2638 149.537 95.3071 149.556 95.3496C149.051 95.398 148.546 95.4549 148.042 95.5203C147.933 95.2409 147.838 94.9589 147.721 94.6812C147.693 94.6412 147.665 94.6022 147.637 94.5622C148.031 94.5079 148.424 94.451 148.818 94.4034C148.984 94.3643 149.153 94.3219 149.318 94.2828Z" fill="#E5F0F9"/>
<path d="M141.782 93.1155C145.029 92.3391 147.962 92.3213 150.265 93.062C153.534 94.1152 155.419 96.6497 155.572 100.199C155.897 107.782 149.674 112 143.743 113.416C138.944 114.564 134.512 114.74 131.263 113.912C128.236 113.14 126.306 111.584 125.526 109.286C123.825 104.274 128.788 99.0857 134.767 95.8539C137.061 94.6121 139.508 93.6591 141.782 93.1155ZM152.818 100.567C152.686 97.4813 151.172 95.3187 148.557 94.4762C146.895 93.941 144.808 93.9674 142.354 94.5535C135.22 96.2581 126.174 102.61 128.235 108.682C128.876 110.572 130.411 111.838 132.796 112.446C135.422 113.116 139.107 112.948 143.171 111.977C144.636 111.627 145.906 111.138 147.001 110.547C151.43 108.153 152.969 104.061 152.818 100.567Z" fill="#00B6A1"/>
<path d="M181.706 94.3904L180.582 89.3384L201.607 82.2512C202.955 81.7475 204.446 82.4958 204.849 83.8769C205.21 85.1153 204.559 86.4242 203.353 86.8828L181.706 94.3904Z" fill="#151852"/>
<path d="M196.833 81.3047L199.036 85.1039C199.444 85.8089 199.557 86.649 199.338 87.4346C198.974 88.7495 198.38 90.6521 197.966 90.7897C197.329 91.002 193.152 91.4267 192.94 91.2143C192.728 91.002 194.25 87.1085 194.25 87.1085C194.25 87.1085 192.232 91.4267 191.313 91.9924C190.393 92.5589 188.904 92.0111 188.904 92.0111L191.241 87.1798V86.0476L189.861 86.5784L185.541 87.6674C185.541 87.6674 187.136 86.1189 188.198 84.8449C189.26 83.5708 191.578 82.2874 191.578 82.2874L196.833 81.3047Z" fill="#FFB3AB"/>
<path d="M109.128 35.4988L111.764 46.347C111.764 46.347 109.443 49.1398 109.178 53.2125C108.913 57.2853 111.764 61.9976 111.764 61.9976C111.764 61.9976 113.821 66.1511 111.764 70.8439C109.707 75.5375 102.826 81.9783 102.826 81.9783C102.826 81.9783 122.882 91.7037 132.439 90.9214C141.994 90.1391 144.277 90.9664 144.277 90.9664C144.277 90.9664 140.407 78.6505 140.671 74.4868C140.935 70.3232 149.905 55.5636 149.905 55.5636C149.905 55.5636 148.326 52.2892 149.622 46.849C150.683 42.3898 154.405 40.6715 154.405 40.6715C154.405 40.6715 144.92 35.1437 141.465 34.6562C125.922 32.4606 109.128 35.4988 109.128 35.4988Z" fill="#00B6A1"/>
<path d="M111.762 61.9961C111.762 61.9961 114.352 63.9811 118.829 64.6843C123.783 65.4632 127.322 65.0386 127.322 65.0386C127.322 65.0386 120.245 67.4448 115.714 69.9929C111.184 72.5411 109.344 75.2311 109.344 75.2311C109.344 75.2311 112.317 70.2766 112.741 67.8695C113.167 65.4632 111.762 61.9961 111.762 61.9961Z" fill="#206961"/>
<path d="M154.273 22.0862C151.34 22.7522 148.345 23.1412 145.34 23.2448C144.979 23.2575 144.601 23.2618 144.279 23.0987C143.699 22.804 143.502 22.0879 143.349 21.456C142.15 16.4846 139.771 12.2946 137.342 7.89572C142.66 0.553722 152.828 17.9498 154.273 22.0862Z" fill="#151852"/>
<path d="M129.67 26.2482L130.043 23.7578L137.452 28.3113L137.524 31.544C136.033 31.3521 134.578 30.9512 133.214 30.3575C131.54 29.3807 130.316 27.9249 129.67 26.2482Z" fill="#FF9A8F"/>
<path d="M128.148 36.4216L129.671 26.2461C130.317 27.9228 131.542 29.3786 133.214 30.3554C134.579 30.9491 136.035 31.3491 137.525 31.5419L137.685 38.7336L128.148 36.4216Z" fill="#FFB3AB"/>
<path d="M140.379 37.1388C140.279 39.0788 136.857 40.4777 132.735 40.2645C128.614 40.0513 125.355 38.3059 125.455 36.3659C125.556 34.4259 128.978 33.027 133.099 33.2402C137.219 33.4543 140.479 35.1989 140.379 37.1388Z" fill="#FFB3AB"/>
<path d="M141.941 29.6094C143.197 29.296 144.327 28.8492 144.83 28.2156C147.308 22.1128 140.011 8.73684 140.011 8.73684L133.646 7.56641L127.26 13.8127L128.946 23.4812C129.396 26.0616 131.163 28.2444 133.705 29.3588C136.34 30.1581 139.206 30.2914 141.941 29.6094Z" fill="#FFB3AB"/>
<path d="M119.183 9.68716C118.354 13.3683 114.109 23.8879 114.26 27.6582C117.94 30.1384 125.867 32.3332 130.734 31.5518C131.711 26.2559 130.137 16.5178 130.594 11.4122C133.226 10.94 135.827 10.2877 138.371 9.46207C141.03 8.59911 143.994 7.12969 144.52 4.38451C144.659 3.66509 144.594 2.87856 144.193 2.26531C143.552 1.28343 142.271 0.989553 141.119 0.778059C138.486 0.293915 135.81 -0.192775 133.146 0.0773268C126.384 0.761923 120.588 3.44934 119.183 9.68716Z" fill="#151852"/>
<defs>
<linearGradient id="paint0_linear_1413_2735" x1="151.86" y1="149.449" x2="172.839" y2="185.412" gradientUnits="userSpaceOnUse">
<stop offset="0.0034" stop-color="#FFB3AB"/>
<stop offset="1" stop-color="#FF8E82"/>
</linearGradient>
<linearGradient id="paint1_linear_1413_2735" x1="38.5811" y1="156.769" x2="78.3452" y2="142.886" gradientUnits="userSpaceOnUse">
<stop offset="0.0034" stop-color="#FFB3AB"/>
<stop offset="1" stop-color="#FFB3AB"/>
</linearGradient>
</defs>
</svg>
