<svg width="212" height="200" viewBox="0 0 212 200" fill="none" xmlns="http://www.w3.org/2000/svg">
<mask id="mask0_1404_114" style="mask-type:alpha" maskUnits="userSpaceOnUse" x="0" y="0" width="212" height="200">
<rect width="212" height="200" fill="#D9D9D9"/>
</mask>
<g mask="url(#mask0_1404_114)">
<path fill-rule="evenodd" clip-rule="evenodd" d="M212.83 113.321C212.83 90.5301 194.355 72.0546 171.564 72.0546V72.0546C156.821 72.0546 143.198 64.1893 135.827 51.4214L126.689 35.5952C114.767 14.9444 88.3605 7.86898 67.7098 19.7917L63.1155 22.4442C45.0021 32.902 38.796 56.0635 49.2538 74.1768V74.1768C58.4431 90.0931 54.7859 110.387 40.7071 122.201V122.201C24.5509 135.757 22.3325 159.938 35.8892 176.094L39.0956 179.915C54.4232 198.182 81.6567 200.564 99.9233 185.237L118.515 169.636C127.16 162.383 138.084 158.406 149.369 158.406H169.654C193.5 158.406 212.83 139.076 212.83 115.23V113.321Z" fill="#31D8A4" fill-opacity="0.3"/>
<path fill-rule="evenodd" clip-rule="evenodd" d="M194.34 177.644C208.317 157.527 203.339 129.889 183.222 115.912V115.912C170.209 106.871 163.007 91.5735 164.331 75.7828L165.971 56.2034C168.112 30.6619 149.142 8.22128 123.6 6.0808L117.917 5.60454C95.5143 3.7271 75.8313 20.3662 73.9539 42.769V42.769C72.3042 62.4543 56.6291 78.1256 36.9563 79.9193V79.9193C14.3796 81.9777 -2.40968 101.963 -0.351238 124.539L0.135525 129.878C2.4628 155.403 25.0416 174.209 50.5668 171.881L77.8447 169.394C89.083 168.37 100.323 171.337 109.591 177.776L128.575 190.966C149.624 205.59 178.543 200.382 193.168 179.332L194.34 177.644Z" fill="#31D8A4" fill-opacity="0.15"/>
<path d="M109.51 9.68079C108.052 9.60415 106.344 9.37771 105.639 8.09988C107.103 6.45974 108.613 4.8621 110.168 3.30906C110.386 3.09167 110.609 2.87219 110.882 2.73284C111.241 2.5503 111.659 2.52173 112.061 2.53358C114.075 2.59071 115.985 3.57173 117.462 4.94014C117.959 5.40138 118.432 5.93578 118.6 6.59212C119.011 8.18766 117.643 10.0201 116.072 10.0271C113.896 10.0368 111.686 9.79575 109.51 9.68079Z" fill="#FFA399"/>
<path d="M93.7128 22.5553C93.9135 22.3114 94.1093 22.0634 94.289 21.7993C94.0528 21.9087 93.8299 22.0279 93.6027 22.1449C93.4975 21.7819 93.3881 21.4203 93.2794 21.0566C93.2195 20.9305 93.1547 20.8065 93.0941 20.6804C93.4209 20.2616 93.7233 19.8289 93.9692 19.3635C93.6104 19.6729 93.2481 19.9641 92.8788 20.2421C92.7339 19.946 92.5911 19.6485 92.442 19.3545C92.9032 18.9671 93.3638 18.5818 93.7978 18.1623C93.2565 18.3971 92.7311 18.6508 92.2016 18.8939C92.0239 18.5525 91.8414 18.2132 91.6567 17.8753C92.0518 17.6335 92.4454 17.3903 92.8321 17.1332C92.3751 17.258 91.925 17.3973 91.4756 17.5374C91.1188 16.8922 90.7517 16.2526 90.3712 15.6213C90.3559 15.5955 90.3385 15.5697 90.3232 15.544C90.5684 15.3614 90.813 15.1796 91.0506 14.9859C90.76 15.096 90.4751 15.213 90.1894 15.3301C90.0054 15.0284 89.8166 14.7302 89.6271 14.432C89.903 14.2229 90.1706 14.0042 90.4186 13.7645C90.1037 13.9136 89.7888 14.0522 89.4724 14.1846C89.1136 13.6244 88.7443 13.0705 88.3667 12.5222C88.7729 12.3083 89.1798 12.0937 89.5818 11.8665C89.1025 11.969 88.6287 12.0881 88.1556 12.2093C88.1472 12.1982 88.1403 12.1863 88.1319 12.1745C87.8218 11.7314 87.5013 11.2959 87.1815 10.8597C87.447 10.7072 87.7124 10.5546 87.973 10.3908C87.6518 10.4647 87.3355 10.5497 87.0199 10.6347C86.9892 10.5929 86.9593 10.5497 86.9279 10.5079C86.6882 10.271 86.4513 10.0334 86.2103 9.7993C86.3127 9.74913 86.4151 9.69618 86.5161 9.65925C86.3949 9.68503 86.2765 9.72057 86.1552 9.74774C85.9183 9.51851 85.6787 9.29277 85.4278 9.07677C85.563 9.32969 85.7044 9.57704 85.8459 9.82368C85.2843 9.95676 84.7248 10.0947 84.1681 10.2494C83.9758 10.0237 83.7891 9.79372 83.5947 9.56937L84.1179 9.37359C84.7046 9.05169 85.3017 8.75697 85.8877 8.42392C85.2216 8.52565 84.5694 8.67405 83.9103 8.80504L83.0944 9.11092C82.5823 8.65315 82.0674 8.19957 81.5254 7.77734C81.5804 7.85468 81.6375 7.92784 81.6933 8.00379C81.2731 8.09088 80.8676 8.20863 80.4621 8.32777L79.8636 8.65315C79.5508 8.39605 79.2352 8.14244 78.907 7.90345C79.1383 8.20445 79.3752 8.49778 79.6128 8.78902L79.3529 8.93046L78.5126 9.38473C78.0186 8.93255 77.5177 8.49011 76.9881 8.08182C77.3707 8.58766 77.7511 9.08932 78.1245 9.59446L77.1324 10.1309L76.244 10.6117C75.897 10.2403 75.5452 9.87455 75.1766 9.52339C75.4184 9.93238 75.6657 10.3344 75.9193 10.7301L75.9451 10.7733L74.9118 11.3321L74.6415 11.4785C74.4318 11.1789 74.22 10.8806 73.9977 10.5873C74.1176 10.935 74.2485 11.2778 74.3802 11.6192L73.8012 11.9327C73.5999 12.1153 73.395 12.2916 73.193 12.472C73.0446 12.2504 72.8962 12.0296 72.7568 11.7969C72.8139 12.0881 72.8983 12.3731 72.9937 12.6553C72.9435 12.7026 72.8913 12.7465 72.8418 12.7953C72.9038 12.7821 72.9631 12.7639 73.0244 12.7486C73.0913 12.9388 73.1623 13.1277 73.2397 13.3151L72.9031 13.4746C72.5757 13.7004 72.2475 13.924 71.9228 14.1512C71.8106 14.009 71.7012 13.8648 71.5835 13.7255C71.6455 13.9038 71.7152 14.078 71.7821 14.2529C71.6058 14.3783 71.4288 14.5009 71.2567 14.634C71.4588 14.5762 71.656 14.5107 71.8552 14.4473C72.0085 14.8416 72.1653 15.2346 72.3193 15.6283C71.9995 15.8157 71.6769 15.9989 71.3598 16.1919L71.6483 16.7229C71.9848 16.5605 72.3207 16.3968 72.6565 16.2337L72.7603 16.4163C72.2231 16.7215 71.6838 17.0225 71.1543 17.3485C71.7793 17.2015 72.3938 17.0259 73.0111 16.8573L73.3518 17.4565C73.4884 17.6962 73.6243 17.9366 73.7608 18.1763C73.1282 18.5657 72.4907 18.9455 71.874 19.3642C72.607 19.1524 73.3219 18.9044 74.0437 18.673C74.3175 19.1552 74.5955 19.6353 74.8728 20.116C74.3712 20.4421 73.8709 20.7675 73.3867 21.1214L75.1111 20.5271C75.2094 20.6957 75.3048 20.865 75.4044 21.0329C75.5306 21.2461 75.6629 21.4558 75.7911 21.6684C75.1397 21.9889 74.4806 22.2905 73.827 22.6194C74.59 22.4989 75.3403 22.3289 76.0963 22.1707C76.4767 22.7901 76.8697 23.4032 77.2752 24.008C76.9401 24.2136 76.6063 24.4226 76.2782 24.6435C76.6781 24.5376 77.0725 24.4177 77.4654 24.2958C77.5184 24.3731 77.5664 24.4525 77.6194 24.5299C78.0103 25.1005 78.4234 25.6565 78.8464 26.2049C79.3522 26.6891 79.8573 27.1678 80.405 27.599C80.0406 27.004 79.6616 26.432 79.3243 25.8328C79.2519 25.7387 79.185 25.6391 79.1132 25.5443C79.6637 25.4433 80.2092 25.3228 80.7568 25.2022C81.1338 25.543 81.5267 25.8614 81.9336 26.1575C81.8904 26.177 81.8459 26.1944 81.8027 26.2139L80.9422 26.7727L80.5186 27.0605C80.4468 27.1106 80.3876 27.1643 80.3269 27.1706C80.3012 27.1712 80.267 27.1608 80.2789 27.1399C80.2851 27.1176 80.3534 27.0716 80.3499 27.1274C80.3722 27.0646 80.2705 27.08 80.2454 27.1141C80.1911 27.1719 80.2642 27.2472 80.313 27.2549C80.4252 27.2813 80.5172 27.2319 80.5952 27.2131L81.0794 27.057L82.0521 26.7643C82.3649 26.6236 82.6826 26.4905 82.9983 26.3547C83.2143 26.602 83.4303 26.8487 83.6567 27.0876C83.5194 26.8062 83.3766 26.5295 83.2352 26.2522C83.4574 26.1575 83.6769 26.0585 83.8992 25.9645C84.4078 25.7499 84.9192 25.5353 85.4299 25.3186C85.6069 25.5666 85.7769 25.8203 85.9567 26.0669C86.1169 26.2404 86.2786 26.4104 86.4388 26.5825C86.3517 26.6257 86.266 26.6717 86.1782 26.7135C85.8152 26.9999 85.4369 27.259 85.0704 27.5545C85.5358 27.4841 85.9831 27.3642 86.4409 27.259C86.5851 27.1894 86.7266 27.1141 86.8701 27.043C87.2171 27.4067 87.5696 27.7649 87.9361 28.1091C87.6874 27.705 87.4344 27.3057 87.1767 26.9135L87.1648 26.8946C87.332 26.8096 87.5013 26.7281 87.6679 26.641C88.1068 26.4097 88.5402 26.1679 88.9701 25.9192C89.2474 26.1965 89.5268 26.4717 89.825 26.7253C89.6083 26.4132 89.4 26.0997 89.193 25.7854C89.4801 25.6161 89.7672 25.4482 90.05 25.2719C90.282 25.127 90.5092 24.9744 90.7384 24.8239C90.9544 25.1263 91.1704 25.4287 91.3948 25.7262C91.2547 25.3743 91.1063 25.0281 90.9565 24.6818C91.4059 24.3822 91.8511 24.0763 92.2873 23.7579L92.5193 24.1362C92.7388 24.5187 92.9666 24.8992 93.2007 25.2782C93.0328 24.6783 92.8342 24.0882 92.6315 23.4994C92.8955 23.3008 93.1589 23.103 93.4202 22.9016C93.4829 22.8284 93.5428 22.7532 93.6041 22.6793C93.6829 22.8027 93.7595 22.926 93.841 23.0486C93.8069 22.8842 93.7574 22.7204 93.7128 22.5553ZM80.9206 24.5048C80.6015 24.1118 80.297 23.7056 80.0051 23.289L80.5429 23.0444L80.6272 23.0061C80.6781 23.0883 80.7269 23.1712 80.777 23.2528C80.9958 23.6025 81.2209 23.9488 81.4431 24.2965C81.269 24.3655 81.0955 24.4372 80.9206 24.5048ZM74.9634 13.1688C74.9829 13.1597 75.0031 13.1513 75.0226 13.1423L75.4365 13.9087C75.1334 14.0655 74.8324 14.2243 74.5321 14.386C74.3614 14.1296 74.1928 13.8732 74.0333 13.6133L74.9634 13.1688ZM76.8969 12.309C77.0495 12.5229 77.1965 12.7417 77.347 12.9576C76.8878 13.1778 76.4321 13.4036 75.9786 13.6335L75.5814 12.8942C76.0169 12.6943 76.4579 12.5034 76.8969 12.309ZM81.4905 11.0785L81.5274 11.1224C81.1644 11.268 80.8007 11.4123 80.4398 11.5635C80.2907 11.3712 80.1444 11.1775 79.9925 10.9879C80.3402 10.8458 80.6879 10.7044 81.0369 10.5657L81.4905 11.0785ZM87.9068 16.1682C87.9403 16.2177 87.9703 16.27 88.003 16.3194C87.5919 16.5368 87.1829 16.7577 86.7698 16.9702C86.7182 16.996 86.6659 17.0204 86.6151 17.0468C86.429 16.7584 86.2493 16.4658 86.0591 16.1794C86.0549 16.1731 86.0507 16.1675 86.0465 16.1613C86.1469 16.1264 86.2465 16.0923 86.3468 16.0568C86.7384 15.916 87.1293 15.7683 87.5174 15.6129C87.6456 15.7997 87.7814 15.9801 87.9068 16.1682ZM88.9164 20.7772C88.6788 20.3738 88.4329 19.9739 88.1911 19.5725L88.8231 19.2855L89.6236 18.9225C89.8382 19.2869 90.0479 19.6534 90.2542 20.0226C90.1957 20.0575 90.1378 20.0937 90.0793 20.1285C89.6954 20.3508 89.3052 20.5626 88.9164 20.7772ZM86.7509 21.9227C86.4876 21.4795 86.2388 21.0246 85.9852 20.5738L87.6358 19.8248C87.8866 20.2407 88.1409 20.6539 88.3876 21.0726C87.8469 21.3646 87.3 21.6461 86.7509 21.9227ZM76.529 14.6577L76.4043 14.425C76.8948 14.1888 77.386 13.9547 77.8772 13.7213C77.9692 13.8571 78.066 13.9888 78.1573 14.1254L76.5931 14.7727C76.5722 14.7343 76.5506 14.6967 76.529 14.6577ZM82.3573 12.1222C82.4102 12.1877 82.459 12.2581 82.5112 12.3236L81.3588 12.8002C81.2348 12.626 81.1136 12.4504 80.9861 12.279C81.3526 12.116 81.7211 11.9585 82.089 11.799L82.3573 12.1222ZM85.5546 16.5138C85.7302 16.7779 85.896 17.0496 86.0681 17.3158C85.5721 17.5631 85.0767 17.8105 84.5757 18.0481C84.3869 17.7053 84.2016 17.3618 84.0093 17.0197C83.9863 16.9786 83.9619 16.9388 83.9389 16.8977C84.4412 16.7208 84.9471 16.5424 85.4529 16.3675C85.4864 16.417 85.5219 16.4644 85.5546 16.5138ZM81.7873 18.6786C81.6229 18.4159 81.4564 18.1533 81.2919 17.8899C81.5212 17.8 81.7483 17.7046 81.9782 17.6168C82.4374 17.4384 82.9007 17.2761 83.3634 17.1095C83.4024 17.1792 83.4435 17.2468 83.4825 17.3165C83.6658 17.6433 83.8469 17.9714 84.0274 18.3003C83.5278 18.533 83.0289 18.7671 82.5252 18.9908C82.3844 19.0535 82.2409 19.1106 82.0995 19.1726C81.9957 19.0075 81.8904 18.8438 81.7873 18.6786ZM78.5816 18.3498C78.328 17.9024 78.082 17.451 77.8319 17.0016C78.4018 16.7514 78.9725 16.5027 79.5438 16.2567C79.8274 16.702 80.111 17.1486 80.3917 17.5959C79.7863 17.8404 79.1829 18.092 78.5816 18.3498ZM80.1068 16.0122C80.3304 15.9167 80.5513 15.8164 80.775 15.7216C81.246 15.5224 81.7211 15.3335 82.1935 15.1371C82.4896 15.6116 82.776 16.0916 83.0568 16.5772C82.6241 16.7333 82.1901 16.8852 81.7622 17.051C81.4947 17.1527 81.2313 17.2635 80.9652 17.3687C80.6802 16.9159 80.3945 16.4637 80.1068 16.0122ZM79.0679 13.1534C79.5187 12.9437 79.9716 12.7396 80.4238 12.5354C80.4315 12.5459 80.4398 12.5556 80.4475 12.5661C80.5638 12.7214 80.6725 12.8817 80.7854 13.0392L79.4504 13.5917L78.7293 13.8899C78.6318 13.7443 78.5287 13.6028 78.4304 13.4579C78.6436 13.3569 78.8547 13.2524 79.0679 13.1534ZM79.6825 14.1498L81.147 13.5436C81.3923 13.8976 81.6306 14.2557 81.8633 14.618C81.4222 14.8019 80.9784 14.9775 80.5388 15.1635C80.2824 15.2722 80.0294 15.3872 79.773 15.4966C79.5389 15.1315 79.3034 14.7671 79.0651 14.4048L79.6825 14.1498ZM83.6337 16.3661C83.3508 15.8749 83.0603 15.3872 82.76 14.9037C83.1948 14.7239 83.6295 14.5427 84.0657 14.3658C84.4189 14.8542 84.7569 15.3531 85.0955 15.8512C84.6078 16.0205 84.1221 16.1933 83.6337 16.3661ZM82.4332 14.3832C82.2012 14.0209 81.965 13.6607 81.7211 13.306L82.8924 12.8218C83.1613 13.1674 83.4296 13.5136 83.6901 13.8655C83.27 14.0369 82.852 14.2104 82.4332 14.3832ZM78.4966 14.641C78.737 15.0061 78.9739 15.3747 79.2108 15.7425C78.652 15.9829 78.0939 16.2261 77.5372 16.4706C77.3219 16.0818 77.1024 15.6959 76.8899 15.3057L78.4966 14.641ZM76.9791 16.7131C76.7338 16.8218 76.4858 16.9249 76.2405 17.0343C76.0064 16.6434 75.7647 16.2567 75.5173 15.8728L76.3262 15.5384C76.5408 15.9314 76.7624 16.3208 76.9791 16.7131ZM77.2745 17.2447C77.5239 17.6934 77.7692 18.1442 78.0228 18.5908C77.834 18.6737 77.6424 18.7511 77.4543 18.8354C77.4104 18.8549 77.3672 18.8765 77.3233 18.896C77.069 18.4494 76.8126 18.0035 76.552 17.559C76.7924 17.4517 77.0348 17.3506 77.2745 17.2447ZM77.7016 19.3879C77.9065 19.2966 78.1134 19.2116 78.3189 19.1224C78.321 19.1259 78.3231 19.1301 78.3252 19.1336C78.5725 19.5656 78.8255 19.9948 79.0777 20.424C78.8401 20.5173 78.6039 20.6149 78.3656 20.7061C78.1169 20.2811 77.8709 19.8533 77.6264 19.4241C77.6508 19.4123 77.6758 19.3998 77.7016 19.3879ZM78.8784 18.8814C79.4895 18.6194 80.1033 18.3644 80.7199 18.1177C80.9046 18.4125 81.0899 18.7051 81.2738 18.9998C81.3602 19.1385 81.448 19.2757 81.5351 19.4144C80.9087 19.6833 80.2789 19.9453 79.6462 20.1989C79.3891 19.76 79.1313 19.3224 78.8784 18.8814ZM81.8619 19.9328C82.1629 20.4121 82.4625 20.8922 82.7677 21.3701L80.8648 22.2334C80.559 21.7332 80.2531 21.2329 79.9542 20.7277C80.5938 20.4706 81.2292 20.2045 81.8619 19.9328ZM82.4255 19.6917C82.5398 19.6415 82.6555 19.5955 82.7697 19.5447C83.2895 19.3141 83.8044 19.073 84.32 18.8326C84.5875 19.321 84.8565 19.8101 85.1275 20.2992L84.4329 20.6142L83.3257 21.1165C83.0227 20.6434 82.7245 20.1676 82.4255 19.6917ZM84.869 18.5797C85.3818 18.3358 85.8891 18.0822 86.397 17.8286C86.7084 18.3177 87.0192 18.8068 87.3216 19.3022L85.6849 20.0449C85.4146 19.5572 85.138 19.0709 84.869 18.5797ZM88.5681 18.7371L87.8769 19.0507C87.5717 18.5504 87.2582 18.055 86.9432 17.5596C86.9767 17.5429 87.0108 17.5269 87.0443 17.5095C87.4756 17.2893 87.902 17.0608 88.3298 16.8343C88.6649 17.3513 89.0021 17.8669 89.3205 18.3943L88.5681 18.7371ZM86.1434 15.4868C85.9929 15.5398 85.8403 15.592 85.6891 15.645C85.3449 15.1364 84.9979 14.6291 84.6384 14.1296C84.8314 14.0515 85.0223 13.9693 85.2153 13.892L86.0507 13.5617C86.4304 14.069 86.7983 14.5845 87.162 15.1036C86.8248 15.2367 86.4848 15.3628 86.1434 15.4868ZM84.9903 13.3304C84.7492 13.4273 84.5102 13.5304 84.2691 13.6279C84.0099 13.2747 83.7389 12.9298 83.4707 12.5828L83.8887 12.41L84.8565 12.0108C85.1338 12.3564 85.3972 12.7117 85.6668 13.0636L84.9903 13.3304ZM83.6525 11.8519L83.0902 12.0846C83.0011 11.9717 82.9188 11.854 82.829 11.7425L82.6673 11.5481C82.7182 11.5265 82.7683 11.5035 82.8192 11.4819L83.9424 10.9218C84.111 11.1217 84.2831 11.3196 84.4496 11.5217L83.6525 11.8519ZM79.8678 11.8122C79.4741 11.9815 79.0791 12.1473 78.6882 12.325C78.4248 12.4441 78.1656 12.5723 77.9037 12.695C77.7567 12.4825 77.6117 12.2686 77.4626 12.0575C77.8382 11.893 78.2088 11.7174 78.5865 11.5579C78.8568 11.4429 79.132 11.3405 79.4031 11.2276C79.5605 11.4199 79.7145 11.6157 79.8678 11.8122ZM75.8566 14.687L75.9974 14.9469C76.0078 14.9664 76.0197 14.9866 76.0301 15.0061L75.2491 15.3294L75.1829 15.3572C75.1244 15.2694 75.0658 15.183 75.0066 15.096C75.2895 14.958 75.5738 14.8235 75.8566 14.687ZM74.9432 16.1111C75.1947 16.4985 75.4407 16.8894 75.6797 17.2865L74.3071 17.9066C74.1656 17.6579 74.0242 17.4092 73.8828 17.1597L73.6034 16.6657L74.9432 16.1111ZM75.996 17.8084C76.2573 18.2536 76.5151 18.7023 76.7715 19.1524C76.3095 19.3635 75.8469 19.5732 75.3884 19.7934C75.1278 19.3426 74.8666 18.8911 74.6088 18.4375L75.996 17.8084ZM77.0738 19.6791C77.31 20.0937 77.5483 20.5083 77.7894 20.9214C77.3156 21.0984 76.8404 21.2719 76.3639 21.4419C76.2196 21.2029 76.0705 20.9674 75.9284 20.7271C75.8483 20.5919 75.7716 20.4546 75.6922 20.3195C76.1507 20.1 76.6126 19.8896 77.0738 19.6791ZM79.3856 20.9528C79.6894 21.4663 79.9995 21.9756 80.3102 22.4849L80.2977 22.4905L79.6539 22.7818C79.3146 22.2759 78.9906 21.7582 78.6764 21.2329C78.914 21.1423 79.1488 21.0462 79.3856 20.9528ZM81.2912 22.9329C81.2543 22.8737 81.2188 22.8131 81.1826 22.7539L83.1035 21.8823C83.3947 22.3337 83.6894 22.7838 83.987 23.2319C83.5201 23.4395 83.0526 23.6485 82.5809 23.845C82.3935 23.9223 82.204 23.9934 82.0166 24.0693C81.7741 23.691 81.5288 23.3141 81.2912 22.9329ZM83.6609 21.6286L84.683 21.1646L85.4229 20.8288C85.68 21.2865 85.9406 21.7422 86.2096 22.1944C85.6598 22.4647 85.1066 22.7288 84.5492 22.9838C84.2489 22.5351 83.9542 22.0829 83.6609 21.6286ZM86.5259 22.7149C86.7593 23.0988 87.0011 23.4785 87.2484 23.8547C86.7196 24.1028 86.1838 24.3404 85.6452 24.5724C85.3923 24.2129 85.1338 23.8582 84.8865 23.4945C85.4362 23.2423 85.9831 22.9824 86.5259 22.7149ZM87.068 22.4403C87.6128 22.1651 88.1556 21.8857 88.6921 21.5959L89.3644 22.7595C88.8537 23.0535 88.3312 23.328 87.7995 23.5886C87.5487 23.2109 87.3042 22.8284 87.068 22.4403ZM89.2209 21.3005C89.609 21.0859 89.9992 20.8741 90.3831 20.6518C90.4416 20.6177 90.498 20.5821 90.5559 20.548C90.5789 20.5891 90.6039 20.6295 90.6262 20.6706C90.7962 20.9862 90.953 21.3081 91.1181 21.6259C91.0213 21.6962 90.9286 21.7708 90.8304 21.8391C90.5224 22.0537 90.2061 22.2557 89.8856 22.4522L89.2209 21.3005ZM91.1579 20.3815C91.1314 20.3327 91.1014 20.2853 91.0749 20.2365C91.3655 20.0631 91.656 19.8903 91.9452 19.714C92.095 20.0094 92.2385 20.3076 92.3841 20.6058C92.3841 20.6058 92.3827 20.6072 92.3813 20.6079C92.134 20.8357 91.8762 21.0524 91.6114 21.2608C91.4582 20.9681 91.3139 20.672 91.1579 20.3815ZM91.6644 19.1719C91.3697 19.3552 91.0708 19.5321 90.7726 19.7098C90.5775 19.3621 90.3796 19.0151 90.1768 18.671L90.8931 18.3456C90.9753 18.294 91.0582 18.2438 91.1411 18.193C91.3181 18.5184 91.4937 18.8438 91.6644 19.1719ZM89.8542 15.9341C90.2089 16.5236 90.5538 17.1193 90.8882 17.7206C90.8039 17.7464 90.7203 17.7736 90.6353 17.7986L89.8745 18.1442C89.5505 17.6063 89.2091 17.0796 88.8677 16.5529C88.9582 16.5048 89.0495 16.4581 89.1401 16.4093C89.3721 16.2414 89.6041 16.0742 89.8361 15.9063C89.8424 15.9153 89.8487 15.9244 89.8542 15.9341ZM89.6201 15.5607C89.3637 15.6659 89.1073 15.7725 88.8488 15.8735C88.7471 15.9293 88.6426 15.9815 88.5402 16.0366C88.4956 15.9697 88.4552 15.8993 88.4106 15.8324C88.3061 15.6763 88.1932 15.5258 88.0873 15.3705C88.2343 15.3071 88.3827 15.2492 88.5283 15.183C88.7339 15.0548 88.9359 14.9218 89.1359 14.7859C89.2989 15.043 89.4613 15.3008 89.6201 15.5607ZM88.8962 14.4034C88.6886 14.48 88.4831 14.5636 88.2712 14.6291C88.0943 14.7127 87.911 14.7845 87.7306 14.8618C87.3717 14.347 87.0108 13.8342 86.636 13.3304L87.4477 13.0099C87.5745 12.9409 87.7027 12.8747 87.8295 12.8071C88.1939 13.3339 88.5499 13.8655 88.8962 14.4034ZM87.5278 12.3696C87.4282 12.3947 87.3292 12.4212 87.2289 12.4455L86.2528 12.8308C85.9824 12.4762 85.7149 12.1188 85.4362 11.7704L85.9929 11.5405C86.2124 11.4137 86.4325 11.2896 86.6527 11.1649C86.9488 11.5642 87.2408 11.9648 87.5278 12.3696ZM86.4012 10.8026C86.1852 10.8625 85.9692 10.9225 85.7525 10.981L85.0369 11.2778C84.8614 11.0639 84.6802 10.8549 84.5019 10.6431L84.6628 10.5629L85.6006 10.1094C85.7135 10.0536 85.8131 9.99996 85.9162 9.94561C86.08 10.2306 86.2423 10.5156 86.4012 10.8026ZM83.0951 9.92053C83.2442 10.0884 83.3836 10.2647 83.5299 10.4347C83.1906 10.533 82.8506 10.6263 82.5119 10.7281C82.3796 10.7789 82.2493 10.8347 82.1176 10.8862L81.9504 10.6849L81.6333 10.3246C81.8445 10.2424 82.0521 10.1512 82.2632 10.0696L83.0025 9.79233L83.0951 9.92053ZM80.7443 8.87054C81.0683 8.59532 81.3916 8.31871 81.7009 8.01145C81.9044 8.29293 82.1085 8.57372 82.3189 8.84754L82.6353 9.28441L82.0465 9.50527C81.7657 9.61327 81.4898 9.73311 81.2104 9.84319L81.0425 9.65298C80.8189 9.4572 80.5924 9.26629 80.3674 9.07399L80.7443 8.87054ZM79.6365 9.46695L79.9918 9.27535L80.5917 10.0634L80.6112 10.085C80.2698 10.2215 79.9284 10.3588 79.5884 10.4988C79.4421 10.3219 79.2986 10.1428 79.1502 9.96791C79.0965 9.91705 79.0408 9.86897 78.9871 9.81811L79.6365 9.46695ZM77.4229 10.664L78.4861 10.0891C78.5523 10.1818 78.6227 10.2724 78.6868 10.3658C78.7927 10.4877 78.8924 10.6145 78.9969 10.7378C78.7823 10.827 78.5642 10.9085 78.3503 10.9991C77.9329 11.1761 77.5226 11.3698 77.1073 11.5523C76.9617 11.3914 76.814 11.2325 76.6676 11.0723L77.4229 10.664ZM75.2094 11.861L76.2573 11.2945L76.5562 11.7976C76.127 11.9885 75.6957 12.1745 75.2686 12.3703C75.1766 12.2393 75.0853 12.1083 74.9941 11.9773L75.2094 11.861ZM73.3261 12.6734C73.5852 12.6023 73.843 12.5285 74.1029 12.4602L74.6046 12.1891C74.6575 12.3243 74.7112 12.4602 74.7634 12.596C74.7453 12.6044 74.7265 12.6121 74.7077 12.6211L73.6591 13.1186C73.5476 12.9702 73.432 12.8253 73.3261 12.6734ZM72.1012 14.372C72.4586 14.255 72.8146 14.1365 73.1735 14.0237L73.4835 13.876C73.4884 13.8864 73.4926 13.8976 73.4975 13.908C73.6612 14.1693 73.8305 14.4236 73.9991 14.6779C73.6103 14.8911 73.2222 15.1057 72.8376 15.3266C72.591 15.0089 72.3478 14.6891 72.1012 14.372ZM74.4569 15.3621C74.5084 15.4388 74.5607 15.5161 74.6122 15.5927L73.3031 16.1341L73.209 15.9676C73.625 15.7662 74.0409 15.5649 74.4569 15.3621ZM76.6858 21.9694C77.1589 21.8 77.6312 21.6286 78.1015 21.4524C78.42 21.9868 78.7502 22.5149 79.0965 23.0347L78.2298 23.4269C78.0855 23.5168 77.9413 23.6046 77.7964 23.6931C77.4153 23.1259 77.0446 22.5518 76.6858 21.9694ZM78.1218 24.1871C78.1043 24.162 78.0883 24.1355 78.0716 24.1104C78.2054 24.0686 78.3391 24.0261 78.4736 23.9857L79.4442 23.544C79.7333 23.9613 80.0378 24.3689 80.3562 24.7661C79.9235 24.9981 79.4881 25.2259 79.0533 25.4593C78.7363 25.0406 78.4193 24.6219 78.1218 24.1871ZM82.0618 26.1052C81.7887 25.7464 81.5267 25.3834 81.2801 25.0127C81.4459 24.9486 81.6104 24.881 81.7755 24.8156C81.8737 24.9681 81.9692 25.1221 82.0681 25.274C82.2409 25.4754 82.413 25.6767 82.5844 25.8781C82.4102 25.9547 82.2353 26.0279 82.0618 26.1052ZM83.6678 25.4099C83.433 25.5088 83.1996 25.614 82.9648 25.7144C82.8331 25.458 82.7008 25.2022 82.5747 24.9431C82.498 24.826 82.4249 24.7062 82.3482 24.5884C82.5029 24.5257 82.6597 24.4672 82.8136 24.4031C83.3202 24.192 83.8218 23.969 84.3235 23.7447C84.3256 23.7474 84.327 23.7502 84.3291 23.753C84.5715 24.1111 84.8279 24.4602 85.0767 24.8149C84.6078 25.0141 84.1382 25.2113 83.6678 25.4099ZM87.3892 26.1087C87.2115 26.2014 87.0317 26.2885 86.8534 26.379L86.4472 25.7109C86.2946 25.5025 86.151 25.2866 86.0006 25.0768C86.5336 24.8469 87.0659 24.6128 87.5926 24.3641C87.6665 24.4707 87.7348 24.5807 87.81 24.6867C88.0476 24.9556 88.2921 25.2162 88.5381 25.4768C88.1584 25.6935 87.7759 25.9053 87.3892 26.1087ZM89.733 24.7612C89.4494 24.9389 89.1603 25.1082 88.8718 25.2775C88.6767 24.9667 88.4824 24.656 88.304 24.3362C88.2476 24.2575 88.1967 24.1745 88.1416 24.0951C88.6572 23.8401 89.1673 23.5712 89.6675 23.2834L89.7929 23.5008C89.9936 23.7774 90.1908 24.0561 90.3887 24.3348C90.1699 24.4776 89.9539 24.6233 89.733 24.7612ZM91.9717 23.2451C91.5606 23.5461 91.1418 23.8359 90.7182 24.1195C90.5844 23.8136 90.45 23.5078 90.3183 23.2005L90.188 22.9755C90.5224 22.7713 90.8534 22.5595 91.176 22.3351C91.2519 22.2822 91.3237 22.2244 91.3982 22.17C91.5404 22.4501 91.6916 22.7267 91.8302 23.0089L91.9737 23.243C91.9731 23.2444 91.9717 23.2451 91.9717 23.2451ZM93.046 22.425C92.8433 22.5874 92.6343 22.7413 92.4273 22.8974C92.4092 22.8465 92.3925 22.7957 92.3744 22.7441C92.219 22.4278 92.0511 22.1192 91.8908 21.8049C92.1535 21.6008 92.4099 21.3883 92.66 21.1681C92.683 21.2169 92.7088 21.2649 92.7318 21.3137C92.9422 21.63 93.1443 21.9512 93.347 22.2724C93.2481 22.3247 93.145 22.3742 93.046 22.425Z" fill="#E5F0F9"/>
<path d="M90.584 14.2476L125.382 0.872889C126.06 0.612307 126.825 0.90076 127.162 1.54316C127.567 2.31306 127.196 3.26342 126.376 3.55606L91.7308 15.9198L90.584 14.2476Z" fill="#49D5A9"/>
<path d="M85.6702 28.5863C80.7421 28.7493 74.8017 26.5838 71.8231 21.0893C70.4575 18.5692 70.1286 16.1285 70.8456 13.8348C71.6148 11.3725 73.6284 9.21187 76.5157 7.75149C80.0823 5.94622 85.8416 6.56006 91.3034 13.6954C93.8597 17.0356 94.9306 20.3514 94.3182 23.0311C93.8869 24.9179 92.6265 26.4375 90.6735 27.4262C89.3058 28.1174 87.5626 28.5236 85.6702 28.5863ZM80.0189 8.67956C79.1173 8.70952 78.2171 8.9262 77.3357 9.37212C74.8909 10.6088 73.2012 12.3862 72.5791 14.3761C72.014 16.1842 72.2969 18.1511 73.42 20.2232C77.0278 26.8799 85.5636 27.9759 89.8542 25.8049C91.3306 25.0579 92.237 23.9891 92.5478 22.6263C93.0376 20.4824 92.0837 17.7024 89.8611 14.7991C87.3452 11.5118 83.6705 8.55902 80.0189 8.67956Z" fill="#49D5A9"/>
<path d="M107.943 6.90615L109.921 10.663L126.835 3.94081C127.946 3.54087 128.481 2.28116 128.001 1.20329C127.569 0.236907 126.468 -0.236184 125.47 0.116369L107.943 6.90615Z" fill="#023F2C"/>
<path d="M143.433 39.3789C143.44 33.7443 143.863 31.7516 140.017 25.336C139.699 24.8064 137.923 22.7629 137.31 22.6869C136.045 22.5295 133.239 27.9843 132.876 29.2064C131.567 33.6112 131.705 35.514 131.341 41.0002C131.144 43.969 130.947 46.9413 130.978 49.9171C131.01 53.0748 131.401 56.8546 134.17 58.8891C136.267 60.4303 139.185 60.654 141.007 58.6578C144.781 54.5233 143.427 44.417 143.433 39.3789Z" fill="#FFB3AB"/>
<path d="M115.869 8.92235L119.694 5.57031L123.074 8.27717C129.433 13.3683 135.209 18.7625 140.015 25.3391L140.296 26.4065C141.451 27.9867 141.208 30.1863 139.736 31.476L136.326 34.465L133.333 31.6063C127.443 25.9801 122.323 19.5986 118.109 12.6276L115.869 8.92235Z" fill="#FFB3AB"/>
<path d="M117.601 3.91927C117.088 3.67332 116.496 3.66844 115.926 3.67263C113.734 3.68726 111.544 3.75902 109.357 3.88722C108.856 3.91649 108.339 3.95272 107.89 4.17777C107.789 4.57422 107.965 5.0055 108.26 5.28907C108.555 5.57195 108.953 5.72593 109.352 5.81512C110.972 6.17534 112.886 5.6263 114.175 6.67142C114.826 7.19955 115.076 7.22951 115.454 7.97782C115.517 8.10393 118.783 13.8284 118.899 13.9085C119.068 14.0263 118.227 10.0938 118.43 10.0604C119.747 9.8437 122.164 9.91825 122.778 8.73936C123.128 8.06769 120.248 6.17464 119.739 5.65626C119.239 5.14346 118.254 4.23211 117.601 3.91927Z" fill="#FFB3AB"/>
<path d="M96.0737 64.8856C90.9596 67.251 86.6425 68.9316 81.874 74.0401C81.4532 74.4916 83.3225 76.8794 83.5114 77.4667C83.9015 78.6805 86.6892 79.8872 87.9524 79.7158C93.0735 79.0212 97.5055 77.1504 102.636 75.1703C105.411 74.0987 108.191 73.0264 110.877 71.7457C113.728 70.3871 116.991 68.4411 117.671 65.073C118.186 62.5222 117.16 59.7805 114.582 58.9681C109.243 57.2862 100.646 62.7703 96.0737 64.8856Z" fill="#FFB3AB"/>
<path d="M58.8415 89.2547L55.502 85.5501L60.7011 82.2642C67.6616 78.0329 75.1516 74.7422 82.9767 72.4785L86.9523 71.3281L89.8445 78.7784L86.1344 80.6116C78.8318 84.22 71.0833 86.8453 63.0909 88.4179L58.8415 89.2547Z" fill="#FFB3AB"/>
<path d="M46.8608 88.0201L35.7415 87.7386C35.1875 87.7226 34.8238 88.3127 35.0879 88.8004C35.2001 89.0074 35.4056 89.146 35.6397 89.1725L40.3978 90.4148L47.9213 90.451L46.8608 88.0201Z" fill="#FFB3AB"/>
<path d="M47.5376 86.5412L36.5743 84.7227L36.407 85.0871C36.1402 85.6675 36.4614 86.3482 37.0794 86.5112L43.2296 88.1367L47.5376 86.5412Z" fill="#FFB3AB"/>
<path d="M47.6341 89.4492L38.3012 93.5447C37.6309 93.8387 37.4804 94.7215 38.0142 95.2218C38.2483 95.4412 38.5722 95.5374 38.8879 95.4809L42.6099 94.8232C43.1638 94.725 43.7031 94.555 44.2124 94.316L49.8839 91.5555L47.6341 89.4492Z" fill="#FFB3AB"/>
<path d="M49.6702 85.0192L40.8849 83.1289C40.4969 83.5435 40.5185 84.1935 40.933 84.5809C41.6834 85.2832 47.5403 86.5437 47.5403 86.5437L49.6702 85.0192Z" fill="#FFB3AB"/>
<path d="M56.9306 84.7773L49.6691 85.017L46.0627 85.8629L45.977 87.1198L43.2305 88.137L43.2542 88.8631L46.0265 90.2705L47.0047 92.3733C47.0047 92.3733 49.8851 91.5511 50.6355 92.2534C51.3859 92.9557 52.8616 93.6337 52.8616 93.6337L58.4544 86.9066L58.4307 86.1806L56.9306 84.7773Z" fill="#FFB3AB"/>
<path d="M59.2525 89.0636C59.2525 89.0636 56.4683 92.7898 55.0637 94.2906L52.9832 96.5132C52.5812 96.9431 51.9067 96.9647 51.4775 96.5627C51.0818 96.192 51.0246 95.5879 51.3486 95.1532C51.8837 94.4348 52.708 93.1918 53.5162 91.4339C54.8728 88.4818 57.6354 86.1484 57.6354 86.1484L59.2525 89.0636Z" fill="#FFB3AB"/>
<path d="M161.563 109.361C161.682 117.195 132.248 98.2885 132.248 98.2885C130.523 88.9089 125.801 80.3417 118.792 73.8745L109.2 65.0252C107.281 62.7385 108.411 58.9579 111.635 56.8844L134.472 48.8502C137.695 46.7767 141.604 47.316 142.888 50.011L153.575 68.9994C155.789 72.9319 158.372 80.07 159.188 84.5083C159.188 84.5083 161.414 99.6172 161.563 109.361Z" fill="#119C71"/>
<path d="M111.685 56.8398L92.5645 64.7395L100.244 77.205L118.8 70.5351L111.685 56.8398Z" fill="#119C71"/>
<path d="M130.406 36.8398L129.586 51.1001L145.298 54.2898L144.986 38.1755L130.406 36.8398Z" fill="#119C71"/>
<path d="M132.248 98.2848L137.875 99.0854C138.072 96.7694 136.031 88.3172 135.385 86.4966C133.7 81.7545 129.997 77.9029 125.661 75.3466C121.618 72.963 120.598 72.4328 116.451 71.7109L118.792 73.8708C125.801 80.3387 130.523 88.9052 132.248 98.2848Z" fill="#0B694C"/>
<path d="M132.248 98.2828C132.248 98.2828 143.482 98.1915 147.194 97.7428C150.593 97.3324 160.603 94.9648 160.603 94.9648L163.173 109.681C163.173 109.681 152.494 106.726 149.401 105.586C144.763 103.877 132.248 98.2828 132.248 98.2828Z" fill="#FFB3AB"/>
<path d="M142.916 99.7487C142.916 99.7487 150.77 98.6611 155.427 97.5163C160.083 96.3716 160.844 96.0504 160.844 96.0504L160.604 94.9648" fill="#FF9A8F"/>
<path d="M93.3892 66.0742L99.5825 76.1275L90.9004 67.4649L93.3892 66.0742Z" fill="#FF9A8F"/>
<path d="M117.836 48.7648L117.057 46.8516L124.19 46.9658L125.592 49.217C124.46 49.7047 123.265 50.0315 122.054 50.1834C120.466 50.1932 118.993 49.6776 117.836 48.7648Z" fill="#FF9A8F"/>
<path d="M121.017 56.5831L117.836 48.7656C118.993 49.6784 120.466 50.194 122.055 50.1835C123.266 50.0316 124.461 49.7048 125.593 49.2171L128.714 54.2246L121.017 56.5831Z" fill="#FFB3AB"/>
<path d="M131.093 53.2528C131.468 54.5515 129.135 56.3651 125.882 57.3036C122.63 58.2422 119.69 57.9509 119.315 56.6522C118.94 55.3534 121.273 53.5398 124.525 52.6013C127.778 51.6621 130.718 51.954 131.093 53.2528Z" fill="#FFB3AB"/>
<path d="M127.891 45.9959C128.646 45.2497 129.257 44.4617 129.346 43.8039C128.542 38.4606 117.799 32.0742 117.799 32.0742L112.818 33.9108L110.924 40.9898L116.158 47.1072C117.555 48.7404 119.715 49.5409 121.974 49.2643C124.168 48.7264 126.246 47.6207 127.891 45.9959Z" fill="#FFB3AB"/>
<path d="M116.78 25.6057C116.139 24.4463 114.943 23.5747 113.625 23.5329C112.958 23.512 112.299 23.6931 111.678 23.9377C110.525 24.3913 109.352 25.2253 109.187 26.4536C109.181 26.4968 109.194 26.54 109.217 26.5791C107.694 26.0774 105.886 26.8299 105.037 28.2053C103.723 30.3338 104.715 33.5807 106.767 35.0598C105.518 34.91 104.153 35.4647 103.582 36.6052C103.007 37.7528 103.39 39.1888 104.27 40.0973C104.256 40.1809 104.236 40.2645 104.228 40.3474C103.676 40.3586 103.123 40.5481 102.709 40.9146C101.851 41.6727 101.624 43.016 102.079 44.0667C102.534 45.1181 103.588 45.8517 104.718 46.0419C105.254 46.1325 105.741 46.0538 106.194 45.7444C104.982 48.1405 109.822 49.3313 110.853 46.5234C111.477 46.8049 112.086 47.0571 112.642 47.2564C114.077 47.7706 115.589 48.0221 117.114 48.0082L114.75 43.65C114.077 42.4293 111.818 40.2743 112.977 39.4995C113.822 38.9338 116.432 36.6888 117.277 35.8987C119.292 34.0154 122.146 29.8698 119.281 26.8041C118.63 26.106 117.711 25.7513 116.78 25.6057Z" fill="#023F2C"/>
<path d="M112.918 45.7788C112.996 44.9629 113.906 44.2523 114.951 44.1916C115.996 44.131 116.78 44.7442 116.702 45.56C116.623 46.3759 115.713 47.0866 114.668 47.1465C113.623 47.2078 112.839 46.5954 112.918 45.7788Z" fill="#FFB3AB"/>
<path d="M118.517 126.71C118.511 126.744 119.35 118.861 113.57 119.796C112.683 119.939 109.641 123.589 107.029 123.753C104.417 123.916 101.18 123.964 99.0772 124.867C96.9745 125.77 95.2646 128.036 94.1791 130.418C93.0936 132.799 92.8344 135.289 93.7659 136.151C93.9638 136.334 95.7085 138.007 101.718 135.037C107.674 132.094 116.337 131.847 116.337 131.847L118.517 126.71Z" fill="#023F2C"/>
<path d="M118.447 122.081C115.645 117.254 111.245 124.841 108.572 125.016C107.219 125.105 105.122 124.943 103.767 124.91C101.232 124.85 98.5145 126.183 97.0444 127.978C95.4384 129.939 93.5642 133.491 94.2052 136.687" stroke="white" stroke-width="0.7592" stroke-miterlimit="10"/>
<path d="M107.668 128.743C106.132 128.689 104.588 128.885 103.114 129.324C102.851 129.402 102.537 129.559 102.548 129.834C102.553 129.959 102.632 130.07 102.718 130.162C103.464 130.956 104.745 130.791 105.811 130.565C107.022 130.307 108.391 129.933 108.944 128.825C108.336 130.949 106.962 132.844 105.133 134.084C104.912 134.233 104.578 134.358 104.416 134.148C104.28 133.974 104.397 133.723 104.519 133.539C105.459 132.125 106.709 130.919 108.156 130.031C106.607 131.435 104.597 132.32 102.516 132.516" stroke="white" stroke-width="0.7593" stroke-miterlimit="10" stroke-linecap="round" stroke-linejoin="round"/>
<path d="M130.758 165.257C130.382 164.934 111.99 130.497 111.99 130.497L114.607 128.934C114.607 128.934 131.684 138.163 133.401 142.577C134.869 146.346 136.875 155.777 136.875 155.777C136.875 155.777 136.192 169.94 130.758 165.257Z" fill="url(#paint0_linear_1404_114)"/>
<path d="M130.758 165.257L131.262 159.195C130.943 158.848 132.536 152.52 132.58 152.052L135.065 141.509C135.574 136.133 137.179 130.031 138.826 124.889L144.1 107.612C144.355 106.815 145.162 106.333 145.984 106.485L161.567 109.362C162.438 109.523 163.03 110.338 162.913 111.215C160.518 129.17 154.129 146.36 144.218 161.521L139.687 166.907C139.094 167.812 131.023 167.153 130.758 165.257Z" fill="#FFB3AB"/>
<path d="M86.1753 113.319C86.169 113.354 87.0086 105.47 81.2277 106.405C80.3415 106.549 77.2995 110.199 74.6874 110.362C72.0753 110.525 68.8382 110.573 66.7354 111.476C64.6327 112.379 62.9228 114.646 61.8373 117.027C60.7518 119.409 60.4926 121.899 61.4241 122.761C61.622 122.944 63.3667 124.616 69.3761 121.646C75.3319 118.703 83.9952 118.457 83.9952 118.457L86.1753 113.319Z" fill="#023F2C"/>
<path d="M86.1052 108.69C83.3029 103.864 78.903 111.45 76.2303 111.625C74.8772 111.715 72.7807 111.552 71.4248 111.52C68.89 111.459 66.1727 112.793 64.7026 114.587C63.0966 116.549 61.2224 120.101 61.8634 123.297" stroke="white" stroke-width="0.7592" stroke-miterlimit="10"/>
<path d="M75.3263 115.353C73.7906 115.298 72.2459 115.495 70.7723 115.933C70.509 116.011 70.1947 116.168 70.2066 116.443C70.2115 116.568 70.2902 116.679 70.3766 116.771C71.1221 117.565 72.4027 117.4 73.4687 117.174C74.6804 116.917 76.0488 116.543 76.6027 115.435C75.9937 117.558 74.6198 119.454 72.7908 120.693C72.5706 120.842 72.2362 120.967 72.0739 120.757C71.9387 120.583 72.055 120.332 72.177 120.148C73.1169 118.735 74.3668 117.529 75.814 116.64C74.2651 118.044 72.255 118.93 70.1738 119.125" stroke="white" stroke-width="0.7593" stroke-miterlimit="10" stroke-linecap="round" stroke-linejoin="round"/>
<path d="M113.611 144.791L98.8418 137.675L134.886 99.5391L156.627 108.477L113.611 144.791Z" fill="#FFB3AB"/>
<path d="M98.4272 146.979C97.4086 145.08 84.8964 122.764 80.895 115.63C80.2136 114.415 80.6254 112.882 81.8203 112.169C82.1081 111.997 83.7322 111.51 84.0123 111.693C86.6063 113.392 98.2182 122.389 101.084 125.531C104.215 128.965 104.37 131.456 104.37 131.456C110.744 135.264 125.315 134.707 125.315 134.707C125.315 134.707 103.922 157.227 98.4272 146.979Z" fill="url(#paint1_linear_1404_114)"/>
<path d="M132.251 98.2852C132.251 98.2852 124.089 108.008 118.118 113.676C112.147 119.345 108.996 123.073 108.996 123.073L129.043 137.854L137.569 128.348L134.666 140.739L155.482 151.353L157.052 146.847C161.213 134.903 163.284 122.331 163.175 109.684L132.251 98.2852Z" fill="#49D5A9"/>
<path d="M137.571 128.348C137.571 128.348 142.113 130.418 141.61 136.48C141.106 142.542 140.291 143.623 140.291 143.623L134.668 140.739L137.571 128.348Z" fill="#119C71"/>
<path d="M147.342 107.387C147.185 107.748 147.839 108.08 148.039 107.741C147.975 107.547 147.688 107.475 147.54 107.614C147.989 110.19 147.153 112.959 145.354 114.855" stroke="#119C71" stroke-width="0.8688" stroke-miterlimit="10"/>
<path d="M151.043 108.679C150.999 109.071 151.824 108.881 151.612 108.548C151.32 108.263 150.725 108.513 150.724 108.921C151.344 108.731 151.771 109.546 151.852 110.188C152.135 112.414 151.589 114.736 150.344 116.602" stroke="#119C71" stroke-width="0.8688" stroke-miterlimit="10"/>
<path d="M132.445 100.977C136.273 103.831 140.572 106.053 145.115 107.524" stroke="#119C71" stroke-width="0.8688" stroke-miterlimit="10"/>
<path d="M154.107 110.469C157.002 111.995 160.192 112.959 163.447 113.289" stroke="#119C71" stroke-width="0.8688" stroke-miterlimit="10"/>
<path d="M135.181 141L151.554 149.348L134.709 143.005L135.181 141Z" fill="#FF9A8F"/>
<path d="M111.145 124.656L125.377 135.417L109.637 126.252L111.145 124.656Z" fill="#FF9A8F"/>
<path d="M58.459 182.93C58.459 182.339 77.0816 181.859 100.054 181.859C123.026 181.859 141.649 182.339 141.649 182.93C141.649 183.522 123.026 184.001 100.054 184.001C77.0816 184.001 58.459 183.522 58.459 182.93Z" fill="#17A97C"/>
</g>
<defs>
<linearGradient id="paint0_linear_1404_114" x1="131.982" y1="156.553" x2="119.639" y2="129.94" gradientUnits="userSpaceOnUse">
<stop offset="0.0034" stop-color="#FFB3AB"/>
<stop offset="1" stop-color="#FF8E82"/>
</linearGradient>
<linearGradient id="paint1_linear_1404_114" x1="78.0315" y1="127.87" x2="124.977" y2="136.54" gradientUnits="userSpaceOnUse">
<stop offset="0.0034" stop-color="#FFB3AB"/>
<stop offset="1" stop-color="#FFB3AB"/>
</linearGradient>
</defs>
</svg>
